<mxfile host="Electron" agent="Mozilla/5.0 (Windows NT 10.0; Win64; x64) AppleWebKit/537.36 (KHTML, like Gecko) draw.io/26.2.2 Chrome/134.0.6998.178 Electron/35.1.2 Safari/537.36" version="26.2.2">
  <diagram name="Page-1" id="K8ztFHSU1ajAmN4sSZ_9">
    <mxGraphModel dx="1092" dy="825" grid="1" gridSize="10" guides="1" tooltips="1" connect="1" arrows="1" fold="1" page="1" pageScale="1" pageWidth="850" pageHeight="1100" math="0" shadow="0">
      <root>
        <mxCell id="0" />
        <mxCell id="1" parent="0" />
        <mxCell id="jpTpJqjGXg7uticGvrLC-4" value="" style="edgeStyle=orthogonalEdgeStyle;rounded=0;orthogonalLoop=1;jettySize=auto;html=1;" edge="1" parent="1" source="jpTpJqjGXg7uticGvrLC-1" target="jpTpJqjGXg7uticGvrLC-3">
          <mxGeometry relative="1" as="geometry" />
        </mxCell>
        <mxCell id="jpTpJqjGXg7uticGvrLC-1" value="begin" style="ellipse;whiteSpace=wrap;html=1;" vertex="1" parent="1">
          <mxGeometry x="145" width="120" height="60" as="geometry" />
        </mxCell>
        <mxCell id="jpTpJqjGXg7uticGvrLC-7" value="" style="edgeStyle=orthogonalEdgeStyle;rounded=0;orthogonalLoop=1;jettySize=auto;html=1;entryX=0.5;entryY=0;entryDx=0;entryDy=0;" edge="1" parent="1" source="jpTpJqjGXg7uticGvrLC-3" target="jpTpJqjGXg7uticGvrLC-5">
          <mxGeometry relative="1" as="geometry" />
        </mxCell>
        <mxCell id="jpTpJqjGXg7uticGvrLC-3" value="Declarations&lt;div&gt;&lt;span style=&quot;white-space: pre;&quot;&gt;&#x9;&lt;/span&gt;num CORRECT_GUESS = 50&lt;br&gt;&lt;/div&gt;&lt;div&gt;&lt;span style=&quot;white-space: pre;&quot;&gt;&#x9;&lt;/span&gt;num theGuess&lt;br&gt;&lt;/div&gt;&lt;div&gt;&lt;span style=&quot;white-space: pre;&quot;&gt;&#x9;&lt;/span&gt;string GUESS_PROMPT = &quot;Guess a number between 1 and 100.&quot;&lt;br&gt;&lt;/div&gt;&lt;div&gt;&lt;span style=&quot;white-space: pre;&quot;&gt;&#x9;&lt;/span&gt;string TOO_HIGH = &quot;That guess was too high!&quot;&lt;br&gt;&lt;/div&gt;&lt;div&gt;&lt;span style=&quot;white-space: pre;&quot;&gt;&#x9;&lt;/span&gt;string TOO_LOW = &quot;That guess was too low!&quot;&lt;br&gt;&lt;/div&gt;&lt;div&gt;&lt;span style=&quot;white-space: pre;&quot;&gt;&#x9;&lt;/span&gt;string YOURE_RIGHT = &quot;That was the correct number!&quot;&lt;br&gt;&lt;/div&gt;" style="rounded=0;whiteSpace=wrap;html=1;align=left;" vertex="1" parent="1">
          <mxGeometry x="10" y="90" width="390" height="100" as="geometry" />
        </mxCell>
        <mxCell id="jpTpJqjGXg7uticGvrLC-18" value="" style="edgeStyle=orthogonalEdgeStyle;rounded=0;orthogonalLoop=1;jettySize=auto;html=1;" edge="1" parent="1" source="jpTpJqjGXg7uticGvrLC-5" target="jpTpJqjGXg7uticGvrLC-16">
          <mxGeometry relative="1" as="geometry" />
        </mxCell>
        <mxCell id="jpTpJqjGXg7uticGvrLC-5" value="" style="swimlane;whiteSpace=wrap;html=1;startSize=10;movable=1;resizable=1;rotatable=1;deletable=1;editable=1;locked=0;connectable=1;" vertex="1" parent="1">
          <mxGeometry x="105" y="230" width="200" height="30" as="geometry">
            <mxRectangle x="105" y="230" width="50" height="40" as="alternateBounds" />
          </mxGeometry>
        </mxCell>
        <mxCell id="jpTpJqjGXg7uticGvrLC-6" value="houseKeeping()" style="text;html=1;align=center;verticalAlign=middle;resizable=1;points=[];autosize=1;strokeColor=none;fillColor=none;movable=1;rotatable=1;deletable=1;editable=1;locked=0;connectable=1;" vertex="1" parent="jpTpJqjGXg7uticGvrLC-5">
          <mxGeometry x="45" y="6" width="110" height="30" as="geometry" />
        </mxCell>
        <mxCell id="jpTpJqjGXg7uticGvrLC-11" value="" style="edgeStyle=orthogonalEdgeStyle;rounded=0;orthogonalLoop=1;jettySize=auto;html=1;" edge="1" parent="1" source="jpTpJqjGXg7uticGvrLC-8" target="jpTpJqjGXg7uticGvrLC-10">
          <mxGeometry relative="1" as="geometry" />
        </mxCell>
        <mxCell id="jpTpJqjGXg7uticGvrLC-8" value="" style="swimlane;whiteSpace=wrap;html=1;startSize=10;movable=1;resizable=1;rotatable=1;deletable=1;editable=1;locked=0;connectable=1;" vertex="1" parent="1">
          <mxGeometry x="510" y="40" width="200" height="30" as="geometry">
            <mxRectangle x="105" y="230" width="50" height="40" as="alternateBounds" />
          </mxGeometry>
        </mxCell>
        <mxCell id="jpTpJqjGXg7uticGvrLC-9" value="houseKeeping()" style="text;html=1;align=center;verticalAlign=middle;resizable=1;points=[];autosize=1;strokeColor=none;fillColor=none;movable=1;rotatable=1;deletable=1;editable=1;locked=0;connectable=1;" vertex="1" parent="jpTpJqjGXg7uticGvrLC-8">
          <mxGeometry x="45" y="6" width="110" height="30" as="geometry" />
        </mxCell>
        <mxCell id="jpTpJqjGXg7uticGvrLC-13" value="" style="edgeStyle=orthogonalEdgeStyle;rounded=0;orthogonalLoop=1;jettySize=auto;html=1;" edge="1" parent="1" source="jpTpJqjGXg7uticGvrLC-10" target="jpTpJqjGXg7uticGvrLC-12">
          <mxGeometry relative="1" as="geometry" />
        </mxCell>
        <mxCell id="jpTpJqjGXg7uticGvrLC-10" value="print&amp;nbsp;&lt;div&gt;GUESS_PROMPT&lt;/div&gt;" style="shape=parallelogram;perimeter=parallelogramPerimeter;whiteSpace=wrap;html=1;fixedSize=1;" vertex="1" parent="1">
          <mxGeometry x="520" y="100" width="180" height="30" as="geometry" />
        </mxCell>
        <mxCell id="jpTpJqjGXg7uticGvrLC-15" value="" style="edgeStyle=orthogonalEdgeStyle;rounded=0;orthogonalLoop=1;jettySize=auto;html=1;" edge="1" parent="1" source="jpTpJqjGXg7uticGvrLC-12" target="jpTpJqjGXg7uticGvrLC-14">
          <mxGeometry relative="1" as="geometry" />
        </mxCell>
        <mxCell id="jpTpJqjGXg7uticGvrLC-12" value="input&lt;div&gt;theGuess&lt;/div&gt;" style="shape=parallelogram;perimeter=parallelogramPerimeter;whiteSpace=wrap;html=1;fixedSize=1;" vertex="1" parent="1">
          <mxGeometry x="530" y="160" width="160" height="30" as="geometry" />
        </mxCell>
        <mxCell id="jpTpJqjGXg7uticGvrLC-14" value="return" style="ellipse;whiteSpace=wrap;html=1;" vertex="1" parent="1">
          <mxGeometry x="550" y="220" width="120" height="60" as="geometry" />
        </mxCell>
        <mxCell id="jpTpJqjGXg7uticGvrLC-45" value="" style="edgeStyle=orthogonalEdgeStyle;rounded=0;orthogonalLoop=1;jettySize=auto;html=1;" edge="1" parent="1" source="jpTpJqjGXg7uticGvrLC-16" target="jpTpJqjGXg7uticGvrLC-44">
          <mxGeometry relative="1" as="geometry" />
        </mxCell>
        <mxCell id="jpTpJqjGXg7uticGvrLC-16" value="is theGuess not = CORRECT_GUESS?" style="rhombus;whiteSpace=wrap;html=1;" vertex="1" parent="1">
          <mxGeometry x="76.88" y="290" width="256.25" height="80" as="geometry" />
        </mxCell>
        <mxCell id="jpTpJqjGXg7uticGvrLC-21" value="" style="edgeStyle=orthogonalEdgeStyle;rounded=0;orthogonalLoop=1;jettySize=auto;html=1;endArrow=none;startFill=1;startArrow=classic;" edge="1" parent="1" source="jpTpJqjGXg7uticGvrLC-19" target="jpTpJqjGXg7uticGvrLC-16">
          <mxGeometry relative="1" as="geometry" />
        </mxCell>
        <mxCell id="jpTpJqjGXg7uticGvrLC-23" style="edgeStyle=orthogonalEdgeStyle;rounded=0;orthogonalLoop=1;jettySize=auto;html=1;" edge="1" parent="1" source="jpTpJqjGXg7uticGvrLC-19">
          <mxGeometry relative="1" as="geometry">
            <mxPoint x="210" y="270" as="targetPoint" />
            <Array as="points">
              <mxPoint x="541" y="330" />
            </Array>
          </mxGeometry>
        </mxCell>
        <mxCell id="jpTpJqjGXg7uticGvrLC-19" value="" style="swimlane;whiteSpace=wrap;html=1;startSize=10;movable=1;resizable=1;rotatable=1;deletable=1;editable=1;locked=0;connectable=1;" vertex="1" parent="1">
          <mxGeometry x="370" y="312" width="150" height="36" as="geometry">
            <mxRectangle x="105" y="230" width="50" height="40" as="alternateBounds" />
          </mxGeometry>
        </mxCell>
        <mxCell id="jpTpJqjGXg7uticGvrLC-20" value="guessingModule()" style="text;html=1;align=center;verticalAlign=middle;resizable=1;points=[];autosize=1;strokeColor=none;fillColor=none;movable=1;rotatable=1;deletable=1;editable=1;locked=0;connectable=1;" vertex="1" parent="jpTpJqjGXg7uticGvrLC-19">
          <mxGeometry x="15" y="6" width="120" height="30" as="geometry" />
        </mxCell>
        <mxCell id="jpTpJqjGXg7uticGvrLC-22" value="Yes" style="text;html=1;align=center;verticalAlign=middle;resizable=0;points=[];autosize=1;strokeColor=none;fillColor=none;" vertex="1" parent="1">
          <mxGeometry x="330" y="310" width="40" height="30" as="geometry" />
        </mxCell>
        <mxCell id="jpTpJqjGXg7uticGvrLC-25" value="" style="swimlane;whiteSpace=wrap;html=1;startSize=10;movable=1;resizable=1;rotatable=1;deletable=1;editable=1;locked=0;connectable=1;" vertex="1" parent="1">
          <mxGeometry x="370" y="460" width="150" height="36" as="geometry">
            <mxRectangle x="105" y="230" width="50" height="40" as="alternateBounds" />
          </mxGeometry>
        </mxCell>
        <mxCell id="jpTpJqjGXg7uticGvrLC-26" value="guessingModule()" style="text;html=1;align=center;verticalAlign=middle;resizable=1;points=[];autosize=1;strokeColor=none;fillColor=none;movable=1;rotatable=1;deletable=1;editable=1;locked=0;connectable=1;" vertex="1" parent="jpTpJqjGXg7uticGvrLC-25">
          <mxGeometry x="15" y="6" width="120" height="30" as="geometry" />
        </mxCell>
        <mxCell id="jpTpJqjGXg7uticGvrLC-30" value="" style="edgeStyle=orthogonalEdgeStyle;rounded=0;orthogonalLoop=1;jettySize=auto;html=1;" edge="1" parent="1" source="jpTpJqjGXg7uticGvrLC-27" target="jpTpJqjGXg7uticGvrLC-29">
          <mxGeometry relative="1" as="geometry" />
        </mxCell>
        <mxCell id="jpTpJqjGXg7uticGvrLC-34" value="" style="edgeStyle=orthogonalEdgeStyle;rounded=0;orthogonalLoop=1;jettySize=auto;html=1;" edge="1" parent="1" source="jpTpJqjGXg7uticGvrLC-27" target="jpTpJqjGXg7uticGvrLC-33">
          <mxGeometry relative="1" as="geometry" />
        </mxCell>
        <mxCell id="jpTpJqjGXg7uticGvrLC-27" value="is theGuess not &amp;gt; CORRECT_GUESS?" style="rhombus;whiteSpace=wrap;html=1;" vertex="1" parent="1">
          <mxGeometry x="318.43" y="540" width="253.13" height="80" as="geometry" />
        </mxCell>
        <mxCell id="jpTpJqjGXg7uticGvrLC-28" value="" style="edgeStyle=orthogonalEdgeStyle;rounded=0;orthogonalLoop=1;jettySize=auto;html=1;" edge="1" parent="1" source="jpTpJqjGXg7uticGvrLC-26" target="jpTpJqjGXg7uticGvrLC-27">
          <mxGeometry relative="1" as="geometry" />
        </mxCell>
        <mxCell id="jpTpJqjGXg7uticGvrLC-38" value="" style="edgeStyle=orthogonalEdgeStyle;rounded=0;orthogonalLoop=1;jettySize=auto;html=1;" edge="1" parent="1" source="jpTpJqjGXg7uticGvrLC-29" target="jpTpJqjGXg7uticGvrLC-37">
          <mxGeometry relative="1" as="geometry">
            <Array as="points">
              <mxPoint x="632" y="780" />
              <mxPoint x="450" y="780" />
            </Array>
          </mxGeometry>
        </mxCell>
        <mxCell id="jpTpJqjGXg7uticGvrLC-29" value="print&amp;nbsp;&lt;div&gt;TOO_LOW&lt;/div&gt;" style="shape=parallelogram;perimeter=parallelogramPerimeter;whiteSpace=wrap;html=1;fixedSize=1;" vertex="1" parent="1">
          <mxGeometry x="571.56" y="640" width="120" height="40" as="geometry" />
        </mxCell>
        <mxCell id="jpTpJqjGXg7uticGvrLC-31" value="Yes" style="text;html=1;align=center;verticalAlign=middle;resizable=0;points=[];autosize=1;strokeColor=none;fillColor=none;" vertex="1" parent="1">
          <mxGeometry x="570" y="560" width="40" height="30" as="geometry" />
        </mxCell>
        <mxCell id="jpTpJqjGXg7uticGvrLC-39" style="edgeStyle=orthogonalEdgeStyle;rounded=0;orthogonalLoop=1;jettySize=auto;html=1;endArrow=none;startFill=0;entryX=0.5;entryY=1;entryDx=0;entryDy=0;" edge="1" parent="1" target="jpTpJqjGXg7uticGvrLC-33">
          <mxGeometry relative="1" as="geometry">
            <mxPoint x="270" y="780" as="targetPoint" />
            <mxPoint x="450" y="780" as="sourcePoint" />
            <Array as="points">
              <mxPoint x="270" y="780" />
              <mxPoint x="256" y="780" />
            </Array>
          </mxGeometry>
        </mxCell>
        <mxCell id="jpTpJqjGXg7uticGvrLC-33" value="print&lt;div&gt;TOO_HIGH&lt;/div&gt;" style="shape=parallelogram;perimeter=parallelogramPerimeter;whiteSpace=wrap;html=1;fixedSize=1;" vertex="1" parent="1">
          <mxGeometry x="196.25" y="640" width="120" height="40" as="geometry" />
        </mxCell>
        <mxCell id="jpTpJqjGXg7uticGvrLC-35" value="No" style="text;html=1;align=center;verticalAlign=middle;resizable=0;points=[];autosize=1;strokeColor=none;fillColor=none;" vertex="1" parent="1">
          <mxGeometry x="278.43" y="560" width="40" height="30" as="geometry" />
        </mxCell>
        <mxCell id="jpTpJqjGXg7uticGvrLC-41" value="" style="edgeStyle=orthogonalEdgeStyle;rounded=0;orthogonalLoop=1;jettySize=auto;html=1;" edge="1" parent="1" source="jpTpJqjGXg7uticGvrLC-37" target="jpTpJqjGXg7uticGvrLC-40">
          <mxGeometry relative="1" as="geometry" />
        </mxCell>
        <mxCell id="jpTpJqjGXg7uticGvrLC-37" value="print&amp;nbsp;&lt;div&gt;GUESS_PROMT&lt;/div&gt;" style="shape=parallelogram;perimeter=parallelogramPerimeter;whiteSpace=wrap;html=1;fixedSize=1;" vertex="1" parent="1">
          <mxGeometry x="385" y="840" width="135" height="40" as="geometry" />
        </mxCell>
        <mxCell id="jpTpJqjGXg7uticGvrLC-43" value="" style="edgeStyle=orthogonalEdgeStyle;rounded=0;orthogonalLoop=1;jettySize=auto;html=1;" edge="1" parent="1" source="jpTpJqjGXg7uticGvrLC-40" target="jpTpJqjGXg7uticGvrLC-42">
          <mxGeometry relative="1" as="geometry" />
        </mxCell>
        <mxCell id="jpTpJqjGXg7uticGvrLC-40" value="input&lt;div&gt;theGuess&lt;/div&gt;" style="shape=parallelogram;perimeter=parallelogramPerimeter;whiteSpace=wrap;html=1;fixedSize=1;" vertex="1" parent="1">
          <mxGeometry x="385" y="920" width="135" height="40" as="geometry" />
        </mxCell>
        <mxCell id="jpTpJqjGXg7uticGvrLC-42" value="return" style="ellipse;whiteSpace=wrap;html=1;" vertex="1" parent="1">
          <mxGeometry x="392.5" y="990" width="120" height="60" as="geometry" />
        </mxCell>
        <mxCell id="jpTpJqjGXg7uticGvrLC-48" value="" style="edgeStyle=orthogonalEdgeStyle;rounded=0;orthogonalLoop=1;jettySize=auto;html=1;" edge="1" parent="1" source="jpTpJqjGXg7uticGvrLC-44" target="jpTpJqjGXg7uticGvrLC-47">
          <mxGeometry relative="1" as="geometry" />
        </mxCell>
        <mxCell id="jpTpJqjGXg7uticGvrLC-44" value="print&lt;div&gt;YOURE_RIGHT&lt;/div&gt;" style="shape=parallelogram;perimeter=parallelogramPerimeter;whiteSpace=wrap;html=1;fixedSize=1;" vertex="1" parent="1">
          <mxGeometry x="145" y="410" width="120" height="40" as="geometry" />
        </mxCell>
        <mxCell id="jpTpJqjGXg7uticGvrLC-46" value="No" style="text;html=1;align=center;verticalAlign=middle;resizable=0;points=[];autosize=1;strokeColor=none;fillColor=none;" vertex="1" parent="1">
          <mxGeometry x="196.25" y="370" width="40" height="30" as="geometry" />
        </mxCell>
        <mxCell id="jpTpJqjGXg7uticGvrLC-47" value="end" style="ellipse;whiteSpace=wrap;html=1;" vertex="1" parent="1">
          <mxGeometry x="145.01" y="480" width="120" height="60" as="geometry" />
        </mxCell>
      </root>
    </mxGraphModel>
  </diagram>
</mxfile>
